Coordinates
version=1
nRows=60
nColumns=12
inDegrees=yes

Units are S.I. units (second, meters, Newtons, ...)
Angles are in degrees

endheader
time	SC_y	SC_z	SC_x	AC_y	AC_z	AC_x	GH_y	GH_z	GH_yy	EL_x	PS_y
       0.0              -47.12          11.01          66.68          60.81          3.345          5.674          21.78          6.766          150.9          32.09          158.8
    0.0197              -47.11          11.01          66.68          60.82          3.342          5.674          21.76          6.774          150.9          32.09          158.8
    0.0394              -47.11          11.01          66.68          60.82           3.34          5.673          21.73          6.782          150.9           32.1          158.8
   0.05909              -47.11          11.01          66.68          60.82          3.336          5.673           21.7           6.79          150.9           32.1          158.8
   0.07879              -47.11          11.01          66.69          60.82          3.333          5.672          21.67            6.8          150.9           32.1          158.8
   0.09849              -47.11          11.01          66.69          60.82           3.33          5.672          21.64          6.809          150.8          32.11          158.8
    0.1182               -47.1           11.0          66.69          60.82          3.326          5.671          21.61           6.82          150.8          32.11          158.8
    0.1379               -47.1           11.0          66.69          60.83          3.322          5.671          21.57          6.831          150.8          32.12          158.7
    0.1576               -47.1           11.0          66.69          60.83          3.318           5.67          21.53          6.842          150.8          32.12          158.7
    0.1773               -47.1           11.0          66.69          60.83          3.314          5.669          21.49          6.855          150.7          32.13          158.7
     0.197              -47.09           11.0          66.69          60.83          3.309          5.669          21.45          6.869          150.7          32.13          158.7
    0.2167              -47.09           11.0           66.7          60.83          3.303          5.668           21.4          6.883          150.7          32.14          158.7
    0.2364              -47.09           11.0           66.7          60.84          3.298          5.667          21.35          6.899          150.6          32.15          158.7
    0.2561              -47.08          10.99           66.7          60.84          3.292          5.666          21.29          6.916          150.6          32.15          158.7
    0.2758              -47.08          10.99           66.7          60.84          3.285          5.665          21.23          6.935          150.6          32.16          158.7
    0.2955              -47.07          10.99           66.7          60.85          3.278          5.664          21.16          6.955          150.5          32.17          158.7
    0.3152              -47.07          10.99          66.71          60.85           3.27          5.663          21.09          6.976          150.5          32.18          158.6
    0.3349              -47.06          10.99          66.71          60.85          3.262          5.662          21.01            7.0          150.4          32.19          158.6
    0.3546              -47.06          10.98          66.71          60.86          3.253           5.66          20.93          7.026          150.3           32.2          158.6
    0.3743              -47.05          10.98          66.71          60.86          3.243          5.659          20.84          7.054          150.3          32.21          158.6
     0.394              -47.04          10.98          66.72          60.87          3.232          5.657          20.73          7.086          150.2          32.22          158.6
    0.4136              -47.04          10.97          66.72          60.88          3.219          5.655          20.62           7.12          150.1          32.24          158.5
    0.4333              -47.03          10.97          66.73          60.88          3.206          5.653           20.5          7.158          150.1          32.25          158.5
     0.453              -47.02          10.96          66.73          60.89          3.191          5.651          20.36            7.2          150.0          32.27          158.5
    0.4727              -47.01          10.96          66.74           60.9          3.174          5.649          20.21          7.246          149.9          32.29          158.4
    0.4924               -47.0          10.95          66.74          60.91          3.156          5.646          20.04          7.298          149.7          32.31          158.4
    0.5121              -46.98          10.95          66.75          60.92          3.135          5.643          19.85          7.357          149.6          32.33          158.3
    0.5318              -46.97          10.94          66.76          60.93          3.112           5.64          19.63          7.422          149.5          32.36          158.3
    0.5515              -46.95          10.93          66.77          60.94          3.086          5.636          19.39          7.496          149.3          32.39          158.2
    0.5712              -46.93          10.92          66.78          60.95          3.056          5.631          19.11           7.58          149.1          32.43          158.2
    0.5909              -46.91          10.91          66.79          60.97          3.022          5.626           18.8          7.676          148.9          32.47          158.1
    0.6106              -46.89           10.9           66.8          60.99          2.982           5.62          18.44          7.787          148.7          32.51          158.0
    0.6303              -46.86          10.89          66.81          61.01          2.937          5.614          18.02          7.914          148.4          32.56          157.9
      0.65              -46.83          10.87          66.83          61.04          2.885          5.606          17.54          8.062          148.0          32.63          157.8
    0.6697              -46.79          10.86          66.85          61.07          2.823          5.597          16.97          8.235          147.7           32.7          157.7
    0.6894              -46.74          10.83          66.88           61.1          2.751          5.586           16.3          8.438          147.2          32.78          157.5
    0.7091              -46.69          10.81           66.9          61.14          2.665          5.573          15.51          8.681          146.7          32.88          157.3
    0.7288              -46.62          10.78          66.94          61.19          2.562          5.558          14.55          8.971          146.0           33.0          157.1
    0.7485              -46.55          10.74          66.98          61.25          2.437           5.54           13.4          9.323          145.2          33.15          156.8
    0.7682              -46.45           10.7          67.03          61.33          2.284          5.517           12.0          9.752          144.3          33.32          156.5
    0.7879              -46.33          10.64          67.09          61.42          2.096          5.489          10.26          10.28          143.1          33.54          156.1
    0.8076              -46.19          10.57          67.17          61.53          1.861          5.454          8.094          10.94          141.6          33.81          155.6
    0.8273               -46.0          10.48          67.26          61.67          1.565           5.41          5.366          11.77          139.8          34.16          154.9
     0.847              -45.76          10.37          67.38          61.85           1.19          5.355          1.899          12.83          137.4           34.6          154.1
    0.8667              -45.46          10.23          67.54          62.08         0.7083          5.284          -2.54          14.19          134.4          35.15          153.1
    0.8864              -45.08          10.05          67.74          62.38        0.09087          5.192         -8.235          15.92          130.6          35.87          151.7
    0.9061              -44.58          9.817           68.0          62.76        -0.6979          5.075         -15.51          18.14          125.6          36.79          150.0
    0.9258              -43.96          9.525          68.32          63.24          -1.69          4.928         -24.66          20.93          119.4          37.94          147.9
    0.9455               -43.2          9.169          68.72          63.82         -2.898          4.749         -35.81          24.33          111.9          39.34          145.2
    0.9652              -42.32          8.756          69.17          64.49         -4.299          4.542         -48.73          28.28          103.1          40.97          142.2
    0.9849              -41.37          8.308          69.67          65.22         -5.816          4.317         -62.72          32.55          93.59          42.74          138.9
     1.005              -40.42          7.861          70.16          65.95         -7.333          4.092         -76.71          36.81           84.1           44.5          135.6
     1.024              -39.54          7.448          70.62          66.63         -8.734          3.885         -89.63          40.76          75.33          46.13          132.6
     1.044              -38.79          7.092          71.01          67.21         -9.942          3.706         -100.8          44.16          67.77          47.53          130.0
     1.064              -38.17          6.799          71.33          67.68         -10.93          3.559         -109.9          46.95          61.56          48.68          127.8
     1.083              -37.67          6.567          71.59          68.06         -11.72          3.442         -117.2          49.17          56.62           49.6          126.1
     1.103              -37.28          6.384          71.79          68.36         -12.34          3.351         -122.9           50.9          52.76          50.32          124.8
     1.123              -36.98          6.243          71.95          68.59         -12.82          3.279         -127.3          52.26          49.75          50.88          123.7
     1.142              -36.75          6.132          72.07          68.77          -13.2          3.224         -130.8          53.32           47.4          51.31          122.9
     1.162              -36.56          6.045          72.17          68.91         -13.49           3.18         -133.5          54.15          45.55          51.66          122.3
